<mxfile host="Electron" modified="2024-04-15T05:41:52.634Z" agent="Mozilla/5.0 (Windows NT 10.0; Win64; x64) AppleWebKit/537.36 (KHTML, like Gecko) draw.io/24.1.0 Chrome/120.0.6099.109 Electron/28.1.0 Safari/537.36" etag="9zYP8K1f_hWhMWbOoZPi" version="24.1.0" type="device" pages="2">
  <diagram name="ego" id="kxUDNqGiwxb-ewQ4IFuE">
    <mxGraphModel dx="954" dy="657" grid="1" gridSize="10" guides="1" tooltips="1" connect="1" arrows="1" fold="1" page="1" pageScale="1" pageWidth="827" pageHeight="1169" math="0" shadow="0">
      <root>
        <mxCell id="0" />
        <mxCell id="1" parent="0" />
        <mxCell id="rgkcXzQiamRppXNhV8tw-6" value="Timeline" style="rounded=0;whiteSpace=wrap;html=1;strokeColor=none;fillColor=#D6D6D6;align=left;" vertex="1" parent="1">
          <mxGeometry x="600" width="600" height="40" as="geometry" />
        </mxCell>
        <mxCell id="rgkcXzQiamRppXNhV8tw-7" value="#" style="rounded=0;whiteSpace=wrap;html=1;strokeColor=none;fillColor=#D6D6D6;align=center;" vertex="1" parent="1">
          <mxGeometry x="40" y="40" width="40" height="40" as="geometry" />
        </mxCell>
        <mxCell id="rgkcXzQiamRppXNhV8tw-8" value="&lt;span&gt;ego&lt;/span&gt;" style="rounded=0;whiteSpace=wrap;html=1;strokeColor=none;fillColor=#D6D6D6;align=center;" vertex="1" parent="1">
          <mxGeometry x="80" y="40" width="280" height="40" as="geometry" />
        </mxCell>
        <mxCell id="rgkcXzQiamRppXNhV8tw-9" value="Duration" style="rounded=0;whiteSpace=wrap;html=1;strokeColor=none;fillColor=#D6D6D6;align=center;" vertex="1" parent="1">
          <mxGeometry x="360" y="40" width="80" height="40" as="geometry" />
        </mxCell>
        <mxCell id="rgkcXzQiamRppXNhV8tw-10" value="Start" style="rounded=0;whiteSpace=wrap;html=1;strokeColor=none;fillColor=#D6D6D6;align=center;" vertex="1" parent="1">
          <mxGeometry x="440" y="40" width="80" height="40" as="geometry" />
        </mxCell>
        <mxCell id="rgkcXzQiamRppXNhV8tw-11" value="ETA" style="rounded=0;whiteSpace=wrap;html=1;strokeColor=none;fillColor=#D6D6D6;align=center;" vertex="1" parent="1">
          <mxGeometry x="520" y="40" width="80" height="40" as="geometry" />
        </mxCell>
        <mxCell id="rgkcXzQiamRppXNhV8tw-126" value="&lt;span&gt;Subtask&lt;/span&gt;" style="rounded=0;whiteSpace=wrap;html=1;strokeColor=#D6D6D6;fillColor=#FFFFFF;align=left;spacingLeft=10;" vertex="1" parent="1">
          <mxGeometry x="80" y="200" width="280" height="30" as="geometry" />
        </mxCell>
        <mxCell id="rgkcXzQiamRppXNhV8tw-127" value="…" style="rounded=0;whiteSpace=wrap;html=1;strokeColor=#D6D6D6;fillColor=#FFFFFF;align=right;spacingLeft=10;spacingRight=8;" vertex="1" parent="1">
          <mxGeometry x="40" y="200" width="40" height="30" as="geometry" />
        </mxCell>
        <mxCell id="rgkcXzQiamRppXNhV8tw-128" value="XY days" style="rounded=0;whiteSpace=wrap;html=1;strokeColor=#D6D6D6;fillColor=#FFFFFF;align=left;spacingLeft=10;spacingRight=8;" vertex="1" parent="1">
          <mxGeometry x="360" y="200" width="80" height="30" as="geometry" />
        </mxCell>
        <mxCell id="rgkcXzQiamRppXNhV8tw-129" value="mm-dd-yy" style="rounded=0;whiteSpace=wrap;html=1;strokeColor=#D6D6D6;fillColor=#FFFFFF;align=left;spacingLeft=10;spacingRight=8;" vertex="1" parent="1">
          <mxGeometry x="440" y="200" width="80" height="30" as="geometry" />
        </mxCell>
        <mxCell id="rgkcXzQiamRppXNhV8tw-130" value="mm-dd-yy" style="rounded=0;whiteSpace=wrap;html=1;strokeColor=#D6D6D6;fillColor=#FFFFFF;align=left;spacingLeft=10;spacingRight=8;" vertex="1" parent="1">
          <mxGeometry x="520" y="200" width="80" height="30" as="geometry" />
        </mxCell>
        <mxCell id="rgkcXzQiamRppXNhV8tw-131" value="&lt;span&gt;Subtask&lt;/span&gt;" style="rounded=0;whiteSpace=wrap;html=1;strokeColor=#D6D6D6;fillColor=#FFFFFF;align=left;spacingLeft=10;" vertex="1" parent="1">
          <mxGeometry x="80" y="140" width="280" height="30" as="geometry" />
        </mxCell>
        <mxCell id="rgkcXzQiamRppXNhV8tw-132" value="…" style="rounded=0;whiteSpace=wrap;html=1;strokeColor=#D6D6D6;fillColor=#FFFFFF;align=right;spacingLeft=10;spacingRight=8;" vertex="1" parent="1">
          <mxGeometry x="40" y="140" width="40" height="30" as="geometry" />
        </mxCell>
        <mxCell id="rgkcXzQiamRppXNhV8tw-133" value="XY days" style="rounded=0;whiteSpace=wrap;html=1;strokeColor=#D6D6D6;fillColor=#FFFFFF;align=left;spacingLeft=10;spacingRight=8;" vertex="1" parent="1">
          <mxGeometry x="360" y="140" width="80" height="30" as="geometry" />
        </mxCell>
        <mxCell id="rgkcXzQiamRppXNhV8tw-134" value="mm-dd-yy" style="rounded=0;whiteSpace=wrap;html=1;strokeColor=#D6D6D6;fillColor=#FFFFFF;align=left;spacingLeft=10;spacingRight=8;" vertex="1" parent="1">
          <mxGeometry x="440" y="140" width="80" height="30" as="geometry" />
        </mxCell>
        <mxCell id="rgkcXzQiamRppXNhV8tw-135" value="mm-dd-yy" style="rounded=0;whiteSpace=wrap;html=1;strokeColor=#D6D6D6;fillColor=#FFFFFF;align=left;spacingLeft=10;spacingRight=8;" vertex="1" parent="1">
          <mxGeometry x="520" y="140" width="80" height="30" as="geometry" />
        </mxCell>
        <mxCell id="rgkcXzQiamRppXNhV8tw-136" value="&lt;span&gt;Subtask&lt;/span&gt;" style="rounded=0;whiteSpace=wrap;html=1;strokeColor=#D6D6D6;fillColor=#FFFFFF;align=left;spacingLeft=10;" vertex="1" parent="1">
          <mxGeometry x="80" y="170" width="280" height="30" as="geometry" />
        </mxCell>
        <mxCell id="rgkcXzQiamRppXNhV8tw-137" value="…" style="rounded=0;whiteSpace=wrap;html=1;strokeColor=#D6D6D6;fillColor=#FFFFFF;align=right;spacingLeft=10;spacingRight=8;" vertex="1" parent="1">
          <mxGeometry x="40" y="170" width="40" height="30" as="geometry" />
        </mxCell>
        <mxCell id="rgkcXzQiamRppXNhV8tw-138" value="XY days" style="rounded=0;whiteSpace=wrap;html=1;strokeColor=#D6D6D6;fillColor=#FFFFFF;align=left;spacingLeft=10;spacingRight=8;" vertex="1" parent="1">
          <mxGeometry x="360" y="170" width="80" height="30" as="geometry" />
        </mxCell>
        <mxCell id="rgkcXzQiamRppXNhV8tw-139" value="mm-dd-yy" style="rounded=0;whiteSpace=wrap;html=1;strokeColor=#D6D6D6;fillColor=#FFFFFF;align=left;spacingLeft=10;spacingRight=8;" vertex="1" parent="1">
          <mxGeometry x="440" y="170" width="80" height="30" as="geometry" />
        </mxCell>
        <mxCell id="rgkcXzQiamRppXNhV8tw-140" value="mm-dd-yy" style="rounded=0;whiteSpace=wrap;html=1;strokeColor=#D6D6D6;fillColor=#FFFFFF;align=left;spacingLeft=10;spacingRight=8;" vertex="1" parent="1">
          <mxGeometry x="520" y="170" width="80" height="30" as="geometry" />
        </mxCell>
        <mxCell id="rgkcXzQiamRppXNhV8tw-141" value="日计划" style="rounded=0;whiteSpace=wrap;html=1;strokeColor=#D6D6D6;fillColor=#FFFFFF;align=left;spacingLeft=10;" vertex="1" parent="1">
          <mxGeometry x="80" y="80" width="280" height="30" as="geometry" />
        </mxCell>
        <mxCell id="rgkcXzQiamRppXNhV8tw-142" value="…" style="rounded=0;whiteSpace=wrap;html=1;strokeColor=#D6D6D6;fillColor=#FFFFFF;align=right;spacingLeft=10;spacingRight=8;" vertex="1" parent="1">
          <mxGeometry x="40" y="80" width="40" height="30" as="geometry" />
        </mxCell>
        <mxCell id="rgkcXzQiamRppXNhV8tw-143" value="XY days" style="rounded=0;whiteSpace=wrap;html=1;strokeColor=#D6D6D6;fillColor=#FFFFFF;align=left;spacingLeft=10;spacingRight=8;" vertex="1" parent="1">
          <mxGeometry x="360" y="80" width="80" height="30" as="geometry" />
        </mxCell>
        <mxCell id="rgkcXzQiamRppXNhV8tw-144" value="mm-dd-yy" style="rounded=0;whiteSpace=wrap;html=1;strokeColor=#D6D6D6;fillColor=#FFFFFF;align=left;spacingLeft=10;spacingRight=8;" vertex="1" parent="1">
          <mxGeometry x="440" y="80" width="80" height="30" as="geometry" />
        </mxCell>
        <mxCell id="rgkcXzQiamRppXNhV8tw-145" value="mm-dd-yy" style="rounded=0;whiteSpace=wrap;html=1;strokeColor=#D6D6D6;fillColor=#FFFFFF;align=left;spacingLeft=10;spacingRight=8;" vertex="1" parent="1">
          <mxGeometry x="520" y="80" width="80" height="30" as="geometry" />
        </mxCell>
        <mxCell id="rgkcXzQiamRppXNhV8tw-146" value="日小结" style="rounded=0;whiteSpace=wrap;html=1;strokeColor=#D6D6D6;fillColor=#FFFFFF;align=left;spacingLeft=10;" vertex="1" parent="1">
          <mxGeometry x="80" y="110" width="280" height="30" as="geometry" />
        </mxCell>
        <mxCell id="rgkcXzQiamRppXNhV8tw-147" value="…" style="rounded=0;whiteSpace=wrap;html=1;strokeColor=#D6D6D6;fillColor=#FFFFFF;align=right;spacingLeft=10;spacingRight=8;" vertex="1" parent="1">
          <mxGeometry x="40" y="110" width="40" height="30" as="geometry" />
        </mxCell>
        <mxCell id="rgkcXzQiamRppXNhV8tw-148" value="XY days" style="rounded=0;whiteSpace=wrap;html=1;strokeColor=#D6D6D6;fillColor=#FFFFFF;align=left;spacingLeft=10;spacingRight=8;" vertex="1" parent="1">
          <mxGeometry x="360" y="110" width="80" height="30" as="geometry" />
        </mxCell>
        <mxCell id="rgkcXzQiamRppXNhV8tw-149" value="mm-dd-yy" style="rounded=0;whiteSpace=wrap;html=1;strokeColor=#D6D6D6;fillColor=#FFFFFF;align=left;spacingLeft=10;spacingRight=8;" vertex="1" parent="1">
          <mxGeometry x="440" y="110" width="80" height="30" as="geometry" />
        </mxCell>
        <mxCell id="rgkcXzQiamRppXNhV8tw-150" value="mm-dd-yy" style="rounded=0;whiteSpace=wrap;html=1;strokeColor=#D6D6D6;fillColor=#FFFFFF;align=left;spacingLeft=10;spacingRight=8;" vertex="1" parent="1">
          <mxGeometry x="520" y="110" width="80" height="30" as="geometry" />
        </mxCell>
        <mxCell id="rgkcXzQiamRppXNhV8tw-223" style="edgeStyle=orthogonalEdgeStyle;rounded=0;orthogonalLoop=1;jettySize=auto;html=1;entryX=0;entryY=0.5;entryDx=0;entryDy=0;" edge="1" parent="1" source="rgkcXzQiamRppXNhV8tw-221" target="rgkcXzQiamRppXNhV8tw-222">
          <mxGeometry relative="1" as="geometry" />
        </mxCell>
        <mxCell id="rgkcXzQiamRppXNhV8tw-221" value="手工" style="rounded=1;whiteSpace=wrap;html=1;fontFamily=Helvetica;fontSize=12;fontColor=#000000;align=left;strokeColor=#D6D6D6;fillColor=#FBE1C0;" vertex="1" parent="1">
          <mxGeometry x="630" y="80" width="80" height="30" as="geometry" />
        </mxCell>
        <mxCell id="rgkcXzQiamRppXNhV8tw-222" value="代码" style="rounded=1;whiteSpace=wrap;html=1;fontFamily=Helvetica;fontSize=12;fontColor=#000000;align=left;strokeColor=#D6D6D6;fillColor=#FBE1C0;" vertex="1" parent="1">
          <mxGeometry x="770" y="110" width="100" height="30" as="geometry" />
        </mxCell>
      </root>
    </mxGraphModel>
  </diagram>
  <diagram id="HdWwP08hk-JMCdzUxNTV" name="PSMD">
    <mxGraphModel dx="954" dy="1826" grid="1" gridSize="10" guides="1" tooltips="1" connect="1" arrows="1" fold="1" page="1" pageScale="1" pageWidth="827" pageHeight="1169" math="0" shadow="0">
      <root>
        <mxCell id="0" />
        <mxCell id="1" parent="0" />
        <mxCell id="oimEdPAALOH4pW6EFj02-31" value="&lt;span style=&quot;&quot;&gt;Complete project execution&lt;/span&gt;" style="rounded=0;whiteSpace=wrap;html=1;strokeColor=#D6D6D6;fillColor=#f7c382;align=left;spacingLeft=10;" vertex="1" parent="1">
          <mxGeometry x="50" y="70" width="560" height="30" as="geometry" />
        </mxCell>
        <mxCell id="oimEdPAALOH4pW6EFj02-32" value="entry" style="rounded=0;whiteSpace=wrap;html=1;strokeColor=#D6D6D6;fillColor=#FBE1C0;align=left;spacingLeft=10;" vertex="1" parent="1">
          <mxGeometry x="90" y="100" width="280" height="30" as="geometry" />
        </mxCell>
        <mxCell id="oimEdPAALOH4pW6EFj02-33" value="&lt;span&gt;Subtask&lt;/span&gt;" style="rounded=0;whiteSpace=wrap;html=1;strokeColor=#D6D6D6;fillColor=#FFFFFF;align=left;spacingLeft=10;" vertex="1" parent="1">
          <mxGeometry x="90" y="130" width="280" height="30" as="geometry" />
        </mxCell>
        <mxCell id="oimEdPAALOH4pW6EFj02-34" value="&lt;span&gt;…&lt;/span&gt;" style="rounded=0;whiteSpace=wrap;html=1;strokeColor=#D6D6D6;fillColor=#FFFFFF;align=left;spacingLeft=10;" vertex="1" parent="1">
          <mxGeometry x="90" y="190" width="280" height="30" as="geometry" />
        </mxCell>
        <mxCell id="oimEdPAALOH4pW6EFj02-35" value="&lt;span&gt;…&lt;/span&gt;" style="rounded=0;whiteSpace=wrap;html=1;strokeColor=#D6D6D6;fillColor=#FFFFFF;align=left;spacingLeft=10;" vertex="1" parent="1">
          <mxGeometry x="90" y="250" width="280" height="30" as="geometry" />
        </mxCell>
        <mxCell id="oimEdPAALOH4pW6EFj02-36" value="&lt;span&gt;…&lt;/span&gt;" style="rounded=0;whiteSpace=wrap;html=1;strokeColor=#D6D6D6;fillColor=#FFFFFF;align=left;spacingLeft=10;" vertex="1" parent="1">
          <mxGeometry x="90" y="280" width="280" height="30" as="geometry" />
        </mxCell>
        <mxCell id="oimEdPAALOH4pW6EFj02-37" value="default" style="rounded=0;whiteSpace=wrap;html=1;strokeColor=#D6D6D6;fillColor=#FBE1C0;align=left;spacingLeft=10;" vertex="1" parent="1">
          <mxGeometry x="90" y="310" width="280" height="30" as="geometry" />
        </mxCell>
        <mxCell id="oimEdPAALOH4pW6EFj02-38" value="&lt;span&gt;…&lt;/span&gt;" style="rounded=0;whiteSpace=wrap;html=1;strokeColor=#D6D6D6;fillColor=#FFFFFF;align=left;spacingLeft=10;" vertex="1" parent="1">
          <mxGeometry x="90" y="340" width="280" height="30" as="geometry" />
        </mxCell>
        <mxCell id="oimEdPAALOH4pW6EFj02-39" value="&lt;span&gt;…&lt;/span&gt;" style="rounded=0;whiteSpace=wrap;html=1;strokeColor=#D6D6D6;fillColor=#FFFFFF;align=left;spacingLeft=10;" vertex="1" parent="1">
          <mxGeometry x="90" y="370" width="280" height="30" as="geometry" />
        </mxCell>
        <mxCell id="oimEdPAALOH4pW6EFj02-40" value="&lt;span&gt;…&lt;/span&gt;" style="rounded=0;whiteSpace=wrap;html=1;strokeColor=#D6D6D6;fillColor=#FFFFFF;align=left;spacingLeft=10;" vertex="1" parent="1">
          <mxGeometry x="90" y="400" width="280" height="30" as="geometry" />
        </mxCell>
        <mxCell id="oimEdPAALOH4pW6EFj02-41" value="Timeline" style="rounded=0;whiteSpace=wrap;html=1;strokeColor=none;fillColor=#D6D6D6;align=left;" vertex="1" parent="1">
          <mxGeometry x="610" y="-10" width="160" height="40" as="geometry" />
        </mxCell>
        <mxCell id="oimEdPAALOH4pW6EFj02-42" value="&lt;span&gt;…&lt;/span&gt;" style="rounded=0;whiteSpace=wrap;html=1;strokeColor=#D6D6D6;fillColor=#FFFFFF;align=left;spacingLeft=10;" vertex="1" parent="1">
          <mxGeometry x="90" y="430" width="280" height="30" as="geometry" />
        </mxCell>
        <mxCell id="oimEdPAALOH4pW6EFj02-43" value="&lt;span&gt;…&lt;/span&gt;" style="rounded=0;whiteSpace=wrap;html=1;strokeColor=#D6D6D6;fillColor=#FFFFFF;align=left;spacingLeft=10;" vertex="1" parent="1">
          <mxGeometry x="90" y="460" width="280" height="30" as="geometry" />
        </mxCell>
        <mxCell id="oimEdPAALOH4pW6EFj02-44" value="&lt;span&gt;…&lt;/span&gt;" style="rounded=0;whiteSpace=wrap;html=1;strokeColor=#D6D6D6;fillColor=#FFFFFF;align=left;spacingLeft=10;" vertex="1" parent="1">
          <mxGeometry x="90" y="490" width="280" height="30" as="geometry" />
        </mxCell>
        <mxCell id="oimEdPAALOH4pW6EFj02-45" value="&lt;span&gt;1406&lt;/span&gt;" style="rounded=0;whiteSpace=wrap;html=1;strokeColor=#D6D6D6;fillColor=#FBE1C0;align=left;spacingLeft=10;" vertex="1" parent="1">
          <mxGeometry x="90" y="520" width="280" height="30" as="geometry" />
        </mxCell>
        <mxCell id="oimEdPAALOH4pW6EFj02-46" value="&lt;span&gt;…&lt;/span&gt;" style="rounded=0;whiteSpace=wrap;html=1;strokeColor=#D6D6D6;fillColor=#FFFFFF;align=left;spacingLeft=10;" vertex="1" parent="1">
          <mxGeometry x="90" y="550" width="280" height="30" as="geometry" />
        </mxCell>
        <mxCell id="oimEdPAALOH4pW6EFj02-47" value="&lt;span&gt;…&lt;/span&gt;" style="rounded=0;whiteSpace=wrap;html=1;strokeColor=#D6D6D6;fillColor=#FFFFFF;align=left;spacingLeft=10;" vertex="1" parent="1">
          <mxGeometry x="90" y="580" width="280" height="30" as="geometry" />
        </mxCell>
        <mxCell id="oimEdPAALOH4pW6EFj02-48" value="&lt;span&gt;…&lt;/span&gt;" style="rounded=0;whiteSpace=wrap;html=1;strokeColor=#D6D6D6;fillColor=#FFFFFF;align=left;spacingLeft=10;" vertex="1" parent="1">
          <mxGeometry x="90" y="610" width="280" height="30" as="geometry" />
        </mxCell>
        <mxCell id="oimEdPAALOH4pW6EFj02-49" value="&lt;span&gt;…&lt;/span&gt;" style="rounded=0;whiteSpace=wrap;html=1;strokeColor=#D6D6D6;fillColor=#FFFFFF;align=left;spacingLeft=10;" vertex="1" parent="1">
          <mxGeometry x="90" y="640" width="280" height="30" as="geometry" />
        </mxCell>
        <mxCell id="oimEdPAALOH4pW6EFj02-50" value="&lt;span style=&quot;white-space: nowrap&quot;&gt;…&lt;/span&gt;" style="rounded=0;whiteSpace=wrap;html=1;strokeColor=#D6D6D6;fillColor=#FFFFFF;align=left;spacingLeft=10;" vertex="1" parent="1">
          <mxGeometry x="90" y="670" width="280" height="30" as="geometry" />
        </mxCell>
        <mxCell id="oimEdPAALOH4pW6EFj02-51" value="1" style="rounded=0;whiteSpace=wrap;html=1;strokeColor=#D6D6D6;fillColor=#FBE1C0;align=right;spacingLeft=10;spacingRight=8;" vertex="1" parent="1">
          <mxGeometry x="50" y="100" width="40" height="30" as="geometry" />
        </mxCell>
        <mxCell id="oimEdPAALOH4pW6EFj02-52" value="1.1" style="rounded=0;whiteSpace=wrap;html=1;strokeColor=#D6D6D6;fillColor=#FFFFFF;align=right;spacingLeft=10;spacingRight=8;" vertex="1" parent="1">
          <mxGeometry x="50" y="130" width="40" height="30" as="geometry" />
        </mxCell>
        <mxCell id="oimEdPAALOH4pW6EFj02-53" value="1.2" style="rounded=0;whiteSpace=wrap;html=1;strokeColor=#D6D6D6;fillColor=#FFFFFF;align=right;spacingLeft=10;spacingRight=8;" vertex="1" parent="1">
          <mxGeometry x="50" y="160" width="40" height="30" as="geometry" />
        </mxCell>
        <mxCell id="oimEdPAALOH4pW6EFj02-54" value="1.4" style="rounded=0;whiteSpace=wrap;html=1;strokeColor=#D6D6D6;fillColor=#FFFFFF;align=right;spacingLeft=10;spacingRight=8;" vertex="1" parent="1">
          <mxGeometry x="50" y="220" width="40" height="30" as="geometry" />
        </mxCell>
        <mxCell id="oimEdPAALOH4pW6EFj02-55" value="1.6" style="rounded=0;whiteSpace=wrap;html=1;strokeColor=#D6D6D6;fillColor=#FFFFFF;align=right;spacingLeft=10;spacingRight=8;" vertex="1" parent="1">
          <mxGeometry x="50" y="280" width="40" height="30" as="geometry" />
        </mxCell>
        <mxCell id="oimEdPAALOH4pW6EFj02-56" value="2" style="rounded=0;whiteSpace=wrap;html=1;strokeColor=#D6D6D6;fillColor=#FBE1C0;align=right;spacingLeft=10;spacingRight=8;" vertex="1" parent="1">
          <mxGeometry x="50" y="310" width="40" height="30" as="geometry" />
        </mxCell>
        <mxCell id="oimEdPAALOH4pW6EFj02-57" value="2.1" style="rounded=0;whiteSpace=wrap;html=1;strokeColor=#D6D6D6;fillColor=#FFFFFF;align=right;spacingLeft=10;spacingRight=8;" vertex="1" parent="1">
          <mxGeometry x="50" y="340" width="40" height="30" as="geometry" />
        </mxCell>
        <mxCell id="oimEdPAALOH4pW6EFj02-58" value="2.2" style="rounded=0;whiteSpace=wrap;html=1;strokeColor=#D6D6D6;fillColor=#FFFFFF;align=right;spacingLeft=10;spacingRight=8;" vertex="1" parent="1">
          <mxGeometry x="50" y="370" width="40" height="30" as="geometry" />
        </mxCell>
        <mxCell id="oimEdPAALOH4pW6EFj02-59" value="2.3" style="rounded=0;whiteSpace=wrap;html=1;strokeColor=#D6D6D6;fillColor=#FFFFFF;align=right;spacingLeft=10;spacingRight=8;" vertex="1" parent="1">
          <mxGeometry x="50" y="400" width="40" height="30" as="geometry" />
        </mxCell>
        <mxCell id="oimEdPAALOH4pW6EFj02-60" value="2.4" style="rounded=0;whiteSpace=wrap;html=1;strokeColor=#D6D6D6;fillColor=#FFFFFF;align=right;spacingLeft=10;spacingRight=8;" vertex="1" parent="1">
          <mxGeometry x="50" y="430" width="40" height="30" as="geometry" />
        </mxCell>
        <mxCell id="oimEdPAALOH4pW6EFj02-61" value="2.5" style="rounded=0;whiteSpace=wrap;html=1;strokeColor=#D6D6D6;fillColor=#FFFFFF;align=right;spacingLeft=10;spacingRight=8;" vertex="1" parent="1">
          <mxGeometry x="50" y="460" width="40" height="30" as="geometry" />
        </mxCell>
        <mxCell id="oimEdPAALOH4pW6EFj02-62" value="2.6" style="rounded=0;whiteSpace=wrap;html=1;strokeColor=#D6D6D6;fillColor=#FFFFFF;align=right;spacingLeft=10;spacingRight=8;" vertex="1" parent="1">
          <mxGeometry x="50" y="490" width="40" height="30" as="geometry" />
        </mxCell>
        <mxCell id="oimEdPAALOH4pW6EFj02-63" value="3" style="rounded=0;whiteSpace=wrap;html=1;strokeColor=#D6D6D6;fillColor=#FBE1C0;align=right;spacingLeft=10;spacingRight=8;" vertex="1" parent="1">
          <mxGeometry x="50" y="520" width="40" height="30" as="geometry" />
        </mxCell>
        <mxCell id="oimEdPAALOH4pW6EFj02-64" value="3.1" style="rounded=0;whiteSpace=wrap;html=1;strokeColor=#D6D6D6;fillColor=#FFFFFF;align=right;spacingLeft=10;spacingRight=8;" vertex="1" parent="1">
          <mxGeometry x="50" y="550" width="40" height="30" as="geometry" />
        </mxCell>
        <mxCell id="oimEdPAALOH4pW6EFj02-65" value="3.2" style="rounded=0;whiteSpace=wrap;html=1;strokeColor=#D6D6D6;fillColor=#FFFFFF;align=right;spacingLeft=10;spacingRight=8;" vertex="1" parent="1">
          <mxGeometry x="50" y="580" width="40" height="30" as="geometry" />
        </mxCell>
        <mxCell id="oimEdPAALOH4pW6EFj02-66" value="3.3" style="rounded=0;whiteSpace=wrap;html=1;strokeColor=#D6D6D6;fillColor=#FFFFFF;align=right;spacingLeft=10;spacingRight=8;" vertex="1" parent="1">
          <mxGeometry x="50" y="610" width="40" height="30" as="geometry" />
        </mxCell>
        <mxCell id="oimEdPAALOH4pW6EFj02-67" value="3.4" style="rounded=0;whiteSpace=wrap;html=1;strokeColor=#D6D6D6;fillColor=#FFFFFF;align=right;spacingLeft=10;spacingRight=8;" vertex="1" parent="1">
          <mxGeometry x="50" y="640" width="40" height="30" as="geometry" />
        </mxCell>
        <mxCell id="oimEdPAALOH4pW6EFj02-68" value="3.5" style="rounded=0;whiteSpace=wrap;html=1;strokeColor=#D6D6D6;fillColor=#FFFFFF;align=right;spacingLeft=10;spacingRight=8;" vertex="1" parent="1">
          <mxGeometry x="50" y="670" width="40" height="30" as="geometry" />
        </mxCell>
        <mxCell id="oimEdPAALOH4pW6EFj02-69" value="XY days" style="rounded=0;whiteSpace=wrap;html=1;strokeColor=#D6D6D6;fillColor=#f7c382;align=left;spacingLeft=10;spacingRight=8;" vertex="1" parent="1">
          <mxGeometry x="370" y="70" width="80" height="30" as="geometry" />
        </mxCell>
        <mxCell id="oimEdPAALOH4pW6EFj02-70" value="XY days" style="rounded=0;whiteSpace=wrap;html=1;strokeColor=#D6D6D6;fillColor=#FBE1C0;align=left;spacingLeft=10;spacingRight=8;" vertex="1" parent="1">
          <mxGeometry x="370" y="100" width="80" height="30" as="geometry" />
        </mxCell>
        <mxCell id="oimEdPAALOH4pW6EFj02-71" value="XY days" style="rounded=0;whiteSpace=wrap;html=1;strokeColor=#D6D6D6;fillColor=#FFFFFF;align=left;spacingLeft=10;spacingRight=8;" vertex="1" parent="1">
          <mxGeometry x="370" y="130" width="80" height="30" as="geometry" />
        </mxCell>
        <mxCell id="oimEdPAALOH4pW6EFj02-72" value="mm-dd-yy" style="rounded=0;whiteSpace=wrap;html=1;strokeColor=#D6D6D6;fillColor=#f7c382;align=left;spacingLeft=10;spacingRight=8;" vertex="1" parent="1">
          <mxGeometry x="450" y="70" width="80" height="30" as="geometry" />
        </mxCell>
        <mxCell id="oimEdPAALOH4pW6EFj02-73" value="mm-dd-yy" style="rounded=0;whiteSpace=wrap;html=1;strokeColor=#D6D6D6;fillColor=#FBE1C0;align=left;spacingLeft=10;spacingRight=8;" vertex="1" parent="1">
          <mxGeometry x="450" y="100" width="80" height="30" as="geometry" />
        </mxCell>
        <mxCell id="oimEdPAALOH4pW6EFj02-74" value="mm-dd-yy" style="rounded=0;whiteSpace=wrap;html=1;strokeColor=#D6D6D6;fillColor=#FFFFFF;align=left;spacingLeft=10;spacingRight=8;" vertex="1" parent="1">
          <mxGeometry x="450" y="130" width="80" height="30" as="geometry" />
        </mxCell>
        <mxCell id="oimEdPAALOH4pW6EFj02-75" value="mm-dd-yy" style="rounded=0;whiteSpace=wrap;html=1;strokeColor=#D6D6D6;fillColor=#f7c382;align=left;spacingLeft=10;spacingRight=8;" vertex="1" parent="1">
          <mxGeometry x="530" y="70" width="80" height="30" as="geometry" />
        </mxCell>
        <mxCell id="oimEdPAALOH4pW6EFj02-76" value="mm-dd-yy" style="rounded=0;whiteSpace=wrap;html=1;strokeColor=#D6D6D6;fillColor=#FBE1C0;align=left;spacingLeft=10;spacingRight=8;" vertex="1" parent="1">
          <mxGeometry x="530" y="100" width="80" height="30" as="geometry" />
        </mxCell>
        <mxCell id="oimEdPAALOH4pW6EFj02-77" value="mm-dd-yy" style="rounded=0;whiteSpace=wrap;html=1;strokeColor=#D6D6D6;fillColor=#FFFFFF;align=left;spacingLeft=10;spacingRight=8;" vertex="1" parent="1">
          <mxGeometry x="530" y="130" width="80" height="30" as="geometry" />
        </mxCell>
        <mxCell id="oimEdPAALOH4pW6EFj02-78" value="&lt;span&gt;…&lt;/span&gt;" style="rounded=0;whiteSpace=wrap;html=1;strokeColor=#D6D6D6;fillColor=#FFFFFF;align=left;spacingLeft=10;" vertex="1" parent="1">
          <mxGeometry x="90" y="160" width="280" height="30" as="geometry" />
        </mxCell>
        <mxCell id="oimEdPAALOH4pW6EFj02-79" value="1.3" style="rounded=0;whiteSpace=wrap;html=1;strokeColor=#D6D6D6;fillColor=#FFFFFF;align=right;spacingLeft=10;spacingRight=8;" vertex="1" parent="1">
          <mxGeometry x="50" y="190" width="40" height="30" as="geometry" />
        </mxCell>
        <mxCell id="oimEdPAALOH4pW6EFj02-80" value="&lt;span&gt;…&lt;/span&gt;" style="rounded=0;whiteSpace=wrap;html=1;strokeColor=#D6D6D6;fillColor=#FFFFFF;align=left;spacingLeft=10;" vertex="1" parent="1">
          <mxGeometry x="90" y="220" width="280" height="30" as="geometry" />
        </mxCell>
        <mxCell id="oimEdPAALOH4pW6EFj02-81" value="1.5" style="rounded=0;whiteSpace=wrap;html=1;strokeColor=#D6D6D6;fillColor=#FFFFFF;align=right;spacingLeft=10;spacingRight=8;" vertex="1" parent="1">
          <mxGeometry x="50" y="250" width="40" height="30" as="geometry" />
        </mxCell>
        <mxCell id="oimEdPAALOH4pW6EFj02-82" value="#" style="rounded=0;whiteSpace=wrap;html=1;strokeColor=none;fillColor=#D6D6D6;align=center;" vertex="1" parent="1">
          <mxGeometry x="50" y="30" width="40" height="40" as="geometry" />
        </mxCell>
        <mxCell id="oimEdPAALOH4pW6EFj02-83" value="PSMD" style="rounded=0;whiteSpace=wrap;html=1;strokeColor=none;fillColor=#D6D6D6;align=center;" vertex="1" parent="1">
          <mxGeometry x="90" y="30" width="280" height="40" as="geometry" />
        </mxCell>
        <mxCell id="oimEdPAALOH4pW6EFj02-84" value="Duration" style="rounded=0;whiteSpace=wrap;html=1;strokeColor=none;fillColor=#D6D6D6;align=center;" vertex="1" parent="1">
          <mxGeometry x="370" y="30" width="80" height="40" as="geometry" />
        </mxCell>
        <mxCell id="oimEdPAALOH4pW6EFj02-85" value="Start" style="rounded=0;whiteSpace=wrap;html=1;strokeColor=none;fillColor=#D6D6D6;align=center;" vertex="1" parent="1">
          <mxGeometry x="450" y="30" width="80" height="40" as="geometry" />
        </mxCell>
        <mxCell id="oimEdPAALOH4pW6EFj02-86" value="ETA" style="rounded=0;whiteSpace=wrap;html=1;strokeColor=none;fillColor=#D6D6D6;align=center;" vertex="1" parent="1">
          <mxGeometry x="530" y="30" width="80" height="40" as="geometry" />
        </mxCell>
        <mxCell id="oimEdPAALOH4pW6EFj02-87" value="mm-dd-yy" style="rounded=0;whiteSpace=wrap;html=1;strokeColor=#D6D6D6;fillColor=#FFFFFF;align=left;spacingLeft=10;spacingRight=8;" vertex="1" parent="1">
          <mxGeometry x="450" y="160" width="80" height="30" as="geometry" />
        </mxCell>
        <mxCell id="oimEdPAALOH4pW6EFj02-88" value="mm-dd-yy" style="rounded=0;whiteSpace=wrap;html=1;strokeColor=#D6D6D6;fillColor=#FFFFFF;align=left;spacingLeft=10;spacingRight=8;" vertex="1" parent="1">
          <mxGeometry x="530" y="160" width="80" height="30" as="geometry" />
        </mxCell>
        <mxCell id="oimEdPAALOH4pW6EFj02-89" value="XY days" style="rounded=0;whiteSpace=wrap;html=1;strokeColor=#D6D6D6;fillColor=#FFFFFF;align=left;spacingLeft=10;spacingRight=8;" vertex="1" parent="1">
          <mxGeometry x="370" y="160" width="80" height="30" as="geometry" />
        </mxCell>
        <mxCell id="oimEdPAALOH4pW6EFj02-90" value="mm-dd-yy" style="rounded=0;whiteSpace=wrap;html=1;strokeColor=#D6D6D6;fillColor=#FFFFFF;align=left;spacingLeft=10;spacingRight=8;" vertex="1" parent="1">
          <mxGeometry x="450" y="190" width="80" height="30" as="geometry" />
        </mxCell>
        <mxCell id="oimEdPAALOH4pW6EFj02-91" value="mm-dd-yy" style="rounded=0;whiteSpace=wrap;html=1;strokeColor=#D6D6D6;fillColor=#FFFFFF;align=left;spacingLeft=10;spacingRight=8;" vertex="1" parent="1">
          <mxGeometry x="530" y="190" width="80" height="30" as="geometry" />
        </mxCell>
        <mxCell id="oimEdPAALOH4pW6EFj02-92" value="XY days" style="rounded=0;whiteSpace=wrap;html=1;strokeColor=#D6D6D6;fillColor=#FFFFFF;align=left;spacingLeft=10;spacingRight=8;" vertex="1" parent="1">
          <mxGeometry x="370" y="190" width="80" height="30" as="geometry" />
        </mxCell>
        <mxCell id="oimEdPAALOH4pW6EFj02-93" value="XY days" style="rounded=0;whiteSpace=wrap;html=1;strokeColor=#D6D6D6;fillColor=#FFFFFF;align=left;spacingLeft=10;spacingRight=8;" vertex="1" parent="1">
          <mxGeometry x="370" y="220" width="80" height="30" as="geometry" />
        </mxCell>
        <mxCell id="oimEdPAALOH4pW6EFj02-94" value="mm-dd-yy" style="rounded=0;whiteSpace=wrap;html=1;strokeColor=#D6D6D6;fillColor=#FFFFFF;align=left;spacingLeft=10;spacingRight=8;" vertex="1" parent="1">
          <mxGeometry x="450" y="220" width="80" height="30" as="geometry" />
        </mxCell>
        <mxCell id="oimEdPAALOH4pW6EFj02-95" value="mm-dd-yy" style="rounded=0;whiteSpace=wrap;html=1;strokeColor=#D6D6D6;fillColor=#FFFFFF;align=left;spacingLeft=10;spacingRight=8;" vertex="1" parent="1">
          <mxGeometry x="450" y="250" width="80" height="30" as="geometry" />
        </mxCell>
        <mxCell id="oimEdPAALOH4pW6EFj02-96" value="XY days" style="rounded=0;whiteSpace=wrap;html=1;strokeColor=#D6D6D6;fillColor=#FFFFFF;align=left;spacingLeft=10;spacingRight=8;" vertex="1" parent="1">
          <mxGeometry x="370" y="250" width="80" height="30" as="geometry" />
        </mxCell>
        <mxCell id="oimEdPAALOH4pW6EFj02-97" value="mm-dd-yy" style="rounded=0;whiteSpace=wrap;html=1;strokeColor=#D6D6D6;fillColor=#FFFFFF;align=left;spacingLeft=10;spacingRight=8;" vertex="1" parent="1">
          <mxGeometry x="450" y="280" width="80" height="30" as="geometry" />
        </mxCell>
        <mxCell id="oimEdPAALOH4pW6EFj02-98" value="XY days" style="rounded=0;whiteSpace=wrap;html=1;strokeColor=#D6D6D6;fillColor=#FFFFFF;align=left;spacingLeft=10;spacingRight=8;" vertex="1" parent="1">
          <mxGeometry x="370" y="280" width="80" height="30" as="geometry" />
        </mxCell>
        <mxCell id="oimEdPAALOH4pW6EFj02-99" value="mm-dd-yy" style="rounded=0;whiteSpace=wrap;html=1;strokeColor=#D6D6D6;fillColor=#FFFFFF;align=left;spacingLeft=10;spacingRight=8;" vertex="1" parent="1">
          <mxGeometry x="530" y="220" width="80" height="30" as="geometry" />
        </mxCell>
        <mxCell id="oimEdPAALOH4pW6EFj02-100" value="mm-dd-yy" style="rounded=0;whiteSpace=wrap;html=1;strokeColor=#D6D6D6;fillColor=#FFFFFF;align=left;spacingLeft=10;spacingRight=8;" vertex="1" parent="1">
          <mxGeometry x="530" y="250" width="80" height="30" as="geometry" />
        </mxCell>
        <mxCell id="oimEdPAALOH4pW6EFj02-101" value="mm-dd-yy" style="rounded=0;whiteSpace=wrap;html=1;strokeColor=#D6D6D6;fillColor=#FFFFFF;align=left;spacingLeft=10;spacingRight=8;" vertex="1" parent="1">
          <mxGeometry x="530" y="280" width="80" height="30" as="geometry" />
        </mxCell>
        <mxCell id="oimEdPAALOH4pW6EFj02-102" value="XY days" style="rounded=0;whiteSpace=wrap;html=1;strokeColor=#D6D6D6;fillColor=#FFFFFF;align=left;spacingLeft=10;spacingRight=8;" vertex="1" parent="1">
          <mxGeometry x="370" y="340" width="80" height="30" as="geometry" />
        </mxCell>
        <mxCell id="oimEdPAALOH4pW6EFj02-103" value="mm-dd-yy" style="rounded=0;whiteSpace=wrap;html=1;strokeColor=#D6D6D6;fillColor=#FFFFFF;align=left;spacingLeft=10;spacingRight=8;" vertex="1" parent="1">
          <mxGeometry x="450" y="340" width="80" height="30" as="geometry" />
        </mxCell>
        <mxCell id="oimEdPAALOH4pW6EFj02-104" value="mm-dd-yy" style="rounded=0;whiteSpace=wrap;html=1;strokeColor=#D6D6D6;fillColor=#FFFFFF;align=left;spacingLeft=10;spacingRight=8;" vertex="1" parent="1">
          <mxGeometry x="450" y="370" width="80" height="30" as="geometry" />
        </mxCell>
        <mxCell id="oimEdPAALOH4pW6EFj02-105" value="XY days" style="rounded=0;whiteSpace=wrap;html=1;strokeColor=#D6D6D6;fillColor=#FFFFFF;align=left;spacingLeft=10;spacingRight=8;" vertex="1" parent="1">
          <mxGeometry x="370" y="370" width="80" height="30" as="geometry" />
        </mxCell>
        <mxCell id="oimEdPAALOH4pW6EFj02-106" value="mm-dd-yy" style="rounded=0;whiteSpace=wrap;html=1;strokeColor=#D6D6D6;fillColor=#FFFFFF;align=left;spacingLeft=10;spacingRight=8;" vertex="1" parent="1">
          <mxGeometry x="450" y="400" width="80" height="30" as="geometry" />
        </mxCell>
        <mxCell id="oimEdPAALOH4pW6EFj02-107" value="XY days" style="rounded=0;whiteSpace=wrap;html=1;strokeColor=#D6D6D6;fillColor=#FFFFFF;align=left;spacingLeft=10;spacingRight=8;" vertex="1" parent="1">
          <mxGeometry x="370" y="400" width="80" height="30" as="geometry" />
        </mxCell>
        <mxCell id="oimEdPAALOH4pW6EFj02-108" value="mm-dd-yy" style="rounded=0;whiteSpace=wrap;html=1;strokeColor=#D6D6D6;fillColor=#FFFFFF;align=left;spacingLeft=10;spacingRight=8;" vertex="1" parent="1">
          <mxGeometry x="530" y="340" width="80" height="30" as="geometry" />
        </mxCell>
        <mxCell id="oimEdPAALOH4pW6EFj02-109" value="mm-dd-yy" style="rounded=0;whiteSpace=wrap;html=1;strokeColor=#D6D6D6;fillColor=#FFFFFF;align=left;spacingLeft=10;spacingRight=8;" vertex="1" parent="1">
          <mxGeometry x="530" y="370" width="80" height="30" as="geometry" />
        </mxCell>
        <mxCell id="oimEdPAALOH4pW6EFj02-110" value="mm-dd-yy" style="rounded=0;whiteSpace=wrap;html=1;strokeColor=#D6D6D6;fillColor=#FFFFFF;align=left;spacingLeft=10;spacingRight=8;" vertex="1" parent="1">
          <mxGeometry x="530" y="400" width="80" height="30" as="geometry" />
        </mxCell>
        <mxCell id="oimEdPAALOH4pW6EFj02-111" value="XY days" style="rounded=0;whiteSpace=wrap;html=1;strokeColor=#D6D6D6;fillColor=#FFFFFF;align=left;spacingLeft=10;spacingRight=8;" vertex="1" parent="1">
          <mxGeometry x="370" y="430" width="80" height="30" as="geometry" />
        </mxCell>
        <mxCell id="oimEdPAALOH4pW6EFj02-112" value="mm-dd-yy" style="rounded=0;whiteSpace=wrap;html=1;strokeColor=#D6D6D6;fillColor=#FFFFFF;align=left;spacingLeft=10;spacingRight=8;" vertex="1" parent="1">
          <mxGeometry x="450" y="430" width="80" height="30" as="geometry" />
        </mxCell>
        <mxCell id="oimEdPAALOH4pW6EFj02-113" value="mm-dd-yy" style="rounded=0;whiteSpace=wrap;html=1;strokeColor=#D6D6D6;fillColor=#FFFFFF;align=left;spacingLeft=10;spacingRight=8;" vertex="1" parent="1">
          <mxGeometry x="450" y="460" width="80" height="30" as="geometry" />
        </mxCell>
        <mxCell id="oimEdPAALOH4pW6EFj02-114" value="XY days" style="rounded=0;whiteSpace=wrap;html=1;strokeColor=#D6D6D6;fillColor=#FFFFFF;align=left;spacingLeft=10;spacingRight=8;" vertex="1" parent="1">
          <mxGeometry x="370" y="460" width="80" height="30" as="geometry" />
        </mxCell>
        <mxCell id="oimEdPAALOH4pW6EFj02-115" value="mm-dd-yy" style="rounded=0;whiteSpace=wrap;html=1;strokeColor=#D6D6D6;fillColor=#FFFFFF;align=left;spacingLeft=10;spacingRight=8;" vertex="1" parent="1">
          <mxGeometry x="450" y="490" width="80" height="30" as="geometry" />
        </mxCell>
        <mxCell id="oimEdPAALOH4pW6EFj02-116" value="XY days" style="rounded=0;whiteSpace=wrap;html=1;strokeColor=#D6D6D6;fillColor=#FFFFFF;align=left;spacingLeft=10;spacingRight=8;" vertex="1" parent="1">
          <mxGeometry x="370" y="490" width="80" height="30" as="geometry" />
        </mxCell>
        <mxCell id="oimEdPAALOH4pW6EFj02-117" value="mm-dd-yy" style="rounded=0;whiteSpace=wrap;html=1;strokeColor=#D6D6D6;fillColor=#FFFFFF;align=left;spacingLeft=10;spacingRight=8;" vertex="1" parent="1">
          <mxGeometry x="530" y="430" width="80" height="30" as="geometry" />
        </mxCell>
        <mxCell id="oimEdPAALOH4pW6EFj02-118" value="mm-dd-yy" style="rounded=0;whiteSpace=wrap;html=1;strokeColor=#D6D6D6;fillColor=#FFFFFF;align=left;spacingLeft=10;spacingRight=8;" vertex="1" parent="1">
          <mxGeometry x="530" y="460" width="80" height="30" as="geometry" />
        </mxCell>
        <mxCell id="oimEdPAALOH4pW6EFj02-119" value="mm-dd-yy" style="rounded=0;whiteSpace=wrap;html=1;strokeColor=#D6D6D6;fillColor=#FFFFFF;align=left;spacingLeft=10;spacingRight=8;" vertex="1" parent="1">
          <mxGeometry x="530" y="490" width="80" height="30" as="geometry" />
        </mxCell>
        <mxCell id="oimEdPAALOH4pW6EFj02-120" value="XY days" style="rounded=0;whiteSpace=wrap;html=1;strokeColor=#D6D6D6;fillColor=#FFFFFF;align=left;spacingLeft=10;spacingRight=8;" vertex="1" parent="1">
          <mxGeometry x="370" y="550" width="80" height="30" as="geometry" />
        </mxCell>
        <mxCell id="oimEdPAALOH4pW6EFj02-121" value="mm-dd-yy" style="rounded=0;whiteSpace=wrap;html=1;strokeColor=#D6D6D6;fillColor=#FFFFFF;align=left;spacingLeft=10;spacingRight=8;" vertex="1" parent="1">
          <mxGeometry x="450" y="550" width="80" height="30" as="geometry" />
        </mxCell>
        <mxCell id="oimEdPAALOH4pW6EFj02-122" value="mm-dd-yy" style="rounded=0;whiteSpace=wrap;html=1;strokeColor=#D6D6D6;fillColor=#FFFFFF;align=left;spacingLeft=10;spacingRight=8;" vertex="1" parent="1">
          <mxGeometry x="450" y="580" width="80" height="30" as="geometry" />
        </mxCell>
        <mxCell id="oimEdPAALOH4pW6EFj02-123" value="XY days" style="rounded=0;whiteSpace=wrap;html=1;strokeColor=#D6D6D6;fillColor=#FFFFFF;align=left;spacingLeft=10;spacingRight=8;" vertex="1" parent="1">
          <mxGeometry x="370" y="580" width="80" height="30" as="geometry" />
        </mxCell>
        <mxCell id="oimEdPAALOH4pW6EFj02-124" value="mm-dd-yy" style="rounded=0;whiteSpace=wrap;html=1;strokeColor=#D6D6D6;fillColor=#FFFFFF;align=left;spacingLeft=10;spacingRight=8;" vertex="1" parent="1">
          <mxGeometry x="450" y="610" width="80" height="30" as="geometry" />
        </mxCell>
        <mxCell id="oimEdPAALOH4pW6EFj02-125" value="XY days" style="rounded=0;whiteSpace=wrap;html=1;strokeColor=#D6D6D6;fillColor=#FFFFFF;align=left;spacingLeft=10;spacingRight=8;" vertex="1" parent="1">
          <mxGeometry x="370" y="610" width="80" height="30" as="geometry" />
        </mxCell>
        <mxCell id="oimEdPAALOH4pW6EFj02-126" value="mm-dd-yy" style="rounded=0;whiteSpace=wrap;html=1;strokeColor=#D6D6D6;fillColor=#FFFFFF;align=left;spacingLeft=10;spacingRight=8;" vertex="1" parent="1">
          <mxGeometry x="530" y="550" width="80" height="30" as="geometry" />
        </mxCell>
        <mxCell id="oimEdPAALOH4pW6EFj02-127" value="mm-dd-yy" style="rounded=0;whiteSpace=wrap;html=1;strokeColor=#D6D6D6;fillColor=#FFFFFF;align=left;spacingLeft=10;spacingRight=8;" vertex="1" parent="1">
          <mxGeometry x="530" y="580" width="80" height="30" as="geometry" />
        </mxCell>
        <mxCell id="oimEdPAALOH4pW6EFj02-128" value="mm-dd-yy" style="rounded=0;whiteSpace=wrap;html=1;strokeColor=#D6D6D6;fillColor=#FFFFFF;align=left;spacingLeft=10;spacingRight=8;" vertex="1" parent="1">
          <mxGeometry x="530" y="610" width="80" height="30" as="geometry" />
        </mxCell>
        <mxCell id="oimEdPAALOH4pW6EFj02-129" value="XY days" style="rounded=0;whiteSpace=wrap;html=1;strokeColor=#D6D6D6;fillColor=#FFFFFF;align=left;spacingLeft=10;spacingRight=8;" vertex="1" parent="1">
          <mxGeometry x="370" y="640" width="80" height="30" as="geometry" />
        </mxCell>
        <mxCell id="oimEdPAALOH4pW6EFj02-130" value="mm-dd-yy" style="rounded=0;whiteSpace=wrap;html=1;strokeColor=#D6D6D6;fillColor=#FFFFFF;align=left;spacingLeft=10;spacingRight=8;" vertex="1" parent="1">
          <mxGeometry x="450" y="640" width="80" height="30" as="geometry" />
        </mxCell>
        <mxCell id="oimEdPAALOH4pW6EFj02-131" value="mm-dd-yy" style="rounded=0;whiteSpace=wrap;html=1;strokeColor=#D6D6D6;fillColor=#FFFFFF;align=left;spacingLeft=10;spacingRight=8;" vertex="1" parent="1">
          <mxGeometry x="450" y="670" width="80" height="30" as="geometry" />
        </mxCell>
        <mxCell id="oimEdPAALOH4pW6EFj02-132" value="XY days" style="rounded=0;whiteSpace=wrap;html=1;strokeColor=#D6D6D6;fillColor=#FFFFFF;align=left;spacingLeft=10;spacingRight=8;" vertex="1" parent="1">
          <mxGeometry x="370" y="670" width="80" height="30" as="geometry" />
        </mxCell>
        <mxCell id="oimEdPAALOH4pW6EFj02-133" value="mm-dd-yy" style="rounded=0;whiteSpace=wrap;html=1;strokeColor=#D6D6D6;fillColor=#FFFFFF;align=left;spacingLeft=10;spacingRight=8;" vertex="1" parent="1">
          <mxGeometry x="530" y="640" width="80" height="30" as="geometry" />
        </mxCell>
        <mxCell id="oimEdPAALOH4pW6EFj02-134" value="mm-dd-yy" style="rounded=0;whiteSpace=wrap;html=1;strokeColor=#D6D6D6;fillColor=#FFFFFF;align=left;spacingLeft=10;spacingRight=8;" vertex="1" parent="1">
          <mxGeometry x="530" y="670" width="80" height="30" as="geometry" />
        </mxCell>
        <mxCell id="oimEdPAALOH4pW6EFj02-135" value="XY days" style="rounded=0;whiteSpace=wrap;html=1;strokeColor=#D6D6D6;fillColor=#FBE1C0;align=left;spacingLeft=10;spacingRight=8;" vertex="1" parent="1">
          <mxGeometry x="370" y="310" width="80" height="30" as="geometry" />
        </mxCell>
        <mxCell id="oimEdPAALOH4pW6EFj02-136" value="mm-dd-yy" style="rounded=0;whiteSpace=wrap;html=1;strokeColor=#D6D6D6;fillColor=#FBE1C0;align=left;spacingLeft=10;spacingRight=8;" vertex="1" parent="1">
          <mxGeometry x="450" y="310" width="80" height="30" as="geometry" />
        </mxCell>
        <mxCell id="oimEdPAALOH4pW6EFj02-137" value="mm-dd-yy" style="rounded=0;whiteSpace=wrap;html=1;strokeColor=#D6D6D6;fillColor=#FBE1C0;align=left;spacingLeft=10;spacingRight=8;" vertex="1" parent="1">
          <mxGeometry x="530" y="310" width="80" height="30" as="geometry" />
        </mxCell>
        <mxCell id="oimEdPAALOH4pW6EFj02-138" value="XY days" style="rounded=0;whiteSpace=wrap;html=1;strokeColor=#D6D6D6;fillColor=#FBE1C0;align=left;spacingLeft=10;spacingRight=8;" vertex="1" parent="1">
          <mxGeometry x="370" y="520" width="80" height="30" as="geometry" />
        </mxCell>
        <mxCell id="oimEdPAALOH4pW6EFj02-139" value="mm-dd-yy" style="rounded=0;whiteSpace=wrap;html=1;strokeColor=#D6D6D6;fillColor=#FBE1C0;align=left;spacingLeft=10;spacingRight=8;" vertex="1" parent="1">
          <mxGeometry x="450" y="520" width="80" height="30" as="geometry" />
        </mxCell>
        <mxCell id="oimEdPAALOH4pW6EFj02-140" value="mm-dd-yy" style="rounded=0;whiteSpace=wrap;html=1;strokeColor=#D6D6D6;fillColor=#FBE1C0;align=left;spacingLeft=10;spacingRight=8;" vertex="1" parent="1">
          <mxGeometry x="530" y="520" width="80" height="30" as="geometry" />
        </mxCell>
      </root>
    </mxGraphModel>
  </diagram>
</mxfile>
